<svg width="48" height="48" viewBox="0 0 48 48" xmlns="http://www.w3.org/2000/svg">
    <g stroke="#24292D" fill="none" fill-rule="evenodd">
        <circle stroke-width="2.175" cx="24" cy="24" r="22.913"/>
        <g transform="translate(13.2 13.2)" stroke-width="1.45">
            <path d="m14.127 1.743 5.707 5.707M11.815 2.95c-3.333-1.207-6.813-.486-9.743 3.391L5.122 9.4M12.2 16.478l3.059 3.05c3.877-2.93 4.598-6.41 3.39-9.743"/>
            <path d="m9.398 18.063-5.861-5.86S8.294.694 21.6 0C20.848 13.25 9.398 18.063 9.398 18.063z"/>
            <circle cx="12.695" cy="8.905" r="1.832"/>
            <path d="M1.25 17.242a2.198 2.198 0 0 1 3.108 3.107C3.5 21.21 0 21.6 0 21.6s.392-3.5 1.25-4.358z"/>
        </g>
    </g>
</svg>
