<?xml version="1.0" encoding="utf-8"?>
<!-- Generator: Adobe Illustrator 19.1.0, SVG Export Plug-In . SVG Version: 6.00 Build 0)  -->
<svg version="1.0" id="Calque_1" xmlns="http://www.w3.org/2000/svg" xmlns:xlink="http://www.w3.org/1999/xlink" x="0px" y="0px"
	 viewBox="0 0 60 60" style="enable-background:new 0 0 60 60;" xml:space="preserve">
<style type="text/css">
	.st0{clip-path:url(#SVGID_2_);fill:none;stroke:#FFD60F;stroke-width:1.1749;stroke-linecap:round;}
	.st1{fill:#FFD62D;}
</style>
<g>
	<g>
		<g>
			<g>
				<g>
					<g>
						<defs>
							<rect id="SVGID_1_" x="6.6" y="8.8" width="47.8" height="47.8"/>
						</defs>
						<clipPath id="SVGID_2_">
							<use xlink:href="#SVGID_1_"  style="overflow:visible;"/>
						</clipPath>
						<circle class="st0" cx="30.5" cy="32.7" r="23.3"/>
					</g>
				</g>
			</g>
		</g>
	</g>
	<path class="st1" d="M16.9,46.5l0.4,0.4c0.4,0.5,1.1,0.5,1.6,0.1c0,0,0,0,0.1-0.1l5.6-5.9c0.2-0.2,0.3-0.4,0.3-0.6
		c1.7-1,3.9-1.8,5.3-1.7c0.5,0.1,1,0.2,1.5,0.1c3,0,6.2-1.5,8.7-4.2c2-2,3.4-4.7,3.9-7.5c0.5-2.8-0.2-5.3-1.9-7
		c-1.3-1.4-3.2-2.1-5.1-2.1c-3,0-6.2,1.5-8.7,4.2c-3,3.1-4.3,7.1-3.9,10.4c0,0,0,0.1,0,0.1c0.2,1.5-0.5,3.9-1.6,5.8
		c-0.2,0-0.4,0.2-0.6,0.3l-5.6,5.9C16.5,45.3,16.5,46,16.9,46.5z M31.6,36.5c-1.3,0-2.6-0.5-3.5-1.4c-2.3-2.5-1.4-7.5,2-11.2
		c2.1-2.2,4.7-3.5,7.1-3.5c1.3,0,2.6,0.5,3.5,1.4c1.1,1.1,1.5,2.9,1.2,4.9c-0.4,2.3-1.6,4.5-3.2,6.2C36.6,35.2,34,36.5,31.6,36.5z
		 M25.2,38.3c0.3-0.7,0.6-1.4,0.8-2.1c0.2,0.2,0.4,0.5,0.6,0.7c0.2,0.2,0.4,0.4,0.6,0.6C26.5,37.6,25.8,37.9,25.2,38.3L25.2,38.3z"
		/>
</g>
</svg>
