<?xml version="1.0" encoding="utf-8"?>
<!-- Generator: Adobe Illustrator 19.1.0, SVG Export Plug-In . SVG Version: 6.00 Build 0)  -->
<svg version="1.0" id="Calque_1" xmlns="http://www.w3.org/2000/svg" xmlns:xlink="http://www.w3.org/1999/xlink" x="0px" y="0px"
	 viewBox="0 0 60 60" style="enable-background:new 0 0 60 60;" xml:space="preserve">
<style type="text/css">
	.st0{clip-path:url(#SVGID_2_);fill:none;stroke:#FFD60F;stroke-width:1.1749;stroke-linecap:round;}
	.st1{fill:none;stroke:#FFD60F;stroke-width:1.1532;stroke-linecap:round;stroke-miterlimit:10;}
</style>
<g>
	<g>
		<g>
			<defs>
				<rect id="SVGID_1_" x="7" y="8.4" width="47.8" height="47.8"/>
			</defs>
			<clipPath id="SVGID_2_">
				<use xlink:href="#SVGID_1_"  style="overflow:visible;"/>
			</clipPath>
			<circle class="st0" cx="30.9" cy="32.2" r="23.3"/>
		</g>
	</g>
	<path class="st1" d="M36.7,47.1H25.1c-0.4,0-0.8-0.1-1.1-0.3h0l-0.2-0.1c0,0,0,0-0.1-0.1l0,0c0,0-0.1-0.1-0.1-0.1
		c-2.5-2.2-4-5.3-4-8.5c0-2.2,0.6-4.2,1.8-6.1c-1.1-1.6-1.7-3.4-1.7-5.2c0-5.1,4.1-9.2,9.2-9.2h3.9c5.1,0,9.2,4.1,9.2,9.2
		c0,1.9-0.6,3.7-1.7,5.3c1.1,1.8,1.7,3.9,1.7,6c0,3.2-1.4,6.3-4,8.5c0,0-0.1,0.1-0.1,0.1c0,0-0.1,0.1-0.1,0.1l-0.1,0.1h0
		C37.5,47,37.1,47.1,36.7,47.1z M24.4,45.8L24.4,45.8c0.3,0.2,0.5,0.3,0.8,0.3h11.6c0.2,0,0.5-0.1,0.7-0.3l0.1-0.1c0,0,0,0,0,0l0,0
		c2.3-2,3.6-4.8,3.6-7.8c0-2.1-0.6-4.1-1.8-5.8l-0.2-0.3l0.2-0.3c1.1-1.5,1.7-3.2,1.7-5c0-4.6-3.7-8.3-8.3-8.3H29
		c-4.6,0-8.3,3.7-8.3,8.3c0,1.8,0.6,3.5,1.7,4.9l0.2,0.3l-0.2,0.3c-1.2,1.7-1.8,3.7-1.8,5.8C20.6,40.9,22,43.8,24.4,45.8L24.4,45.8
		C24.3,45.8,24.3,45.8,24.4,45.8L24.4,45.8z M36.9,29.6l-0.4-0.3c-1.7-1.1-3.6-1.6-5.5-1.6c-1.9,0-3.8,0.6-5.5,1.6L25,29.5l-0.2-0.4
		c-0.5-0.8-0.7-1.6-0.7-2.5c0-2.7,2.2-4.9,4.9-4.9h3.9c2.7,0,4.9,2.2,4.9,4.9c0,0.9-0.2,1.7-0.7,2.5L36.9,29.6z M30.9,26.7
		c2,0,3.9,0.5,5.6,1.5c0.2-0.5,0.3-1,0.3-1.6c0-2.2-1.8-4-4-4H29c-2.2,0-4,1.8-4,4c0,0.5,0.1,1,0.3,1.5C27.1,27.2,29,26.7,30.9,26.7
		z"/>
</g>
</svg>
