<?xml version="1.0" encoding="utf-8"?>
<!-- Generator: Adobe Illustrator 19.1.0, SVG Export Plug-In . SVG Version: 6.00 Build 0)  -->
<svg version="1.0" id="Calque_1" xmlns="http://www.w3.org/2000/svg" xmlns:xlink="http://www.w3.org/1999/xlink" x="0px" y="0px"
	 viewBox="0 0 60 60" style="enable-background:new 0 0 60 60;" xml:space="preserve">
<style type="text/css">
	.st0{clip-path:url(#SVGID_2_);fill:none;stroke:#FFD60F;stroke-width:1.1749;stroke-linecap:round;}
	.st1{fill:#FFD62D;}
</style>
<g>
	<g>
		<g>
			<g>
				<defs>
					<rect id="SVGID_1_" x="6.5" y="8.1" width="47.8" height="47.8"/>
				</defs>
				<clipPath id="SVGID_2_">
					<use xlink:href="#SVGID_1_"  style="overflow:visible;"/>
				</clipPath>
				<circle class="st0" cx="30.4" cy="32" r="23.3"/>
			</g>
		</g>
	</g>
	<g>
		<path class="st1" d="M43.3,37.2V36H44c1,0,1.9-0.8,1.9-1.9v-4.3c0-1-0.8-1.9-1.9-1.9h-0.7v-1.2c0-1.9-1.5-3.4-3.4-3.4l0,0h-19
			c-1.9,0-3.4,1.5-3.4,3.4v10.5c0,1.9,1.5,3.4,3.4,3.4h19C41.7,40.6,43.3,39.1,43.3,37.2z M44,29.8v4.3h-0.7v-4.3H44z M20.8,38.8
			c-0.9,0-1.5-0.7-1.5-1.5V26.7c0-0.9,0.7-1.5,1.5-1.5h19c0.9,0,1.5,0.7,1.5,1.5v10.5c0,0.9-0.7,1.5-1.5,1.5H20.8z"/>
		<polygon class="st1" points="37.4,33.5 29.5,28.4 29.5,31.7 23.3,30.4 31.2,35.5 31.2,32.3 		"/>
	</g>
</g>
</svg>
