<?xml version="1.0" encoding="utf-8"?>
<!-- Generator: Adobe Illustrator 19.1.0, SVG Export Plug-In . SVG Version: 6.00 Build 0)  -->
<svg version="1.0" id="Calque_1" xmlns="http://www.w3.org/2000/svg" xmlns:xlink="http://www.w3.org/1999/xlink" x="0px" y="0px"
	 viewBox="0 0 60 60" style="enable-background:new 0 0 60 60;" xml:space="preserve">
<style type="text/css">
	.st0{fill:none;stroke:#FFD60F;stroke-width:1.1749;stroke-linecap:round;}
	.st1{fill:none;stroke:#FFD60F;stroke-width:1.517;stroke-linecap:round;stroke-linejoin:round;stroke-miterlimit:10;}
	.st2{fill:none;stroke:#FFD60F;stroke-width:1.6216;stroke-linecap:round;stroke-linejoin:round;stroke-miterlimit:10;}
	.st3{fill:none;stroke:#FFD60F;stroke-width:1.579;stroke-linecap:round;stroke-linejoin:round;stroke-miterlimit:10;}
</style>
<g>
	<g>
		<circle class="st0" cx="30.9" cy="32.6" r="23.3"/>
	</g>
</g>
<g>
	<path class="st1" d="M23,27l13.5,13.5 M24.9,25.1l13.5,13.5 M20.3,25.6l-2-2l3.6-3.5l2,2L20.3,25.6z M20.8,29.1l-2-2l6.6-6.6l2,2
		L20.8,29.1z M37.9,43.2l2,2l3.6-3.5l-2-2L37.9,43.2z M34.3,42.7l2,2l6.6-6.6l-2-2L34.3,42.7z"/>
	<path class="st1" d="M38,22.1l2-2l3.5,3.6l-2,2L38,22.1z M34.4,22.6l2-2l6.6,6.6l-2,2L34.4,22.6z M20.3,39.6l-2,2l3.5,3.6l2-2
		L20.3,39.6z M20.8,36.1l-2,2l6.6,6.6l2-2L20.8,36.1z"/>
	<path class="st2" d="M24.9,40.2c1.1-1.1,3.3-3.3,4.3-4.3L27.3,34c-1,1-3.2,3.2-4.3,4.3"/>
	<path class="st3" d="M38.3,26.9c-1.2,1.2-3.2,3.2-4.3,4.3L32,29.3c1.2-1.2,3.2-3.2,4.3-4.3"/>
</g>
</svg>
