<?xml version="1.0" encoding="utf-8"?>
<!-- Generator: Adobe Illustrator 19.1.0, SVG Export Plug-In . SVG Version: 6.00 Build 0)  -->
<svg version="1.0" id="Calque_1" xmlns="http://www.w3.org/2000/svg" xmlns:xlink="http://www.w3.org/1999/xlink" x="0px" y="0px"
	 viewBox="0 0 60 60" style="enable-background:new 0 0 60 60;" xml:space="preserve">
<style type="text/css">
	.st0{clip-path:url(#SVGID_2_);fill:#FFD60F;}
	.st1{fill:none;stroke:#FFD60F;stroke-width:1.1749;stroke-linecap:round;}
</style>
<g>
	<g>
		<defs>
			<rect id="SVGID_1_" x="16.9" y="23" width="26.5" height="21"/>
		</defs>
		<clipPath id="SVGID_2_">
			<use xlink:href="#SVGID_1_"  style="overflow:visible;"/>
		</clipPath>
		<path class="st0" d="M43.4,30.1c0,0.8-0.1,1.5-0.4,2.2c-1.1,5.1-10.9,11.3-11.3,11.5c-0.1,0.1-0.3,0.1-0.4,0.1
			c-0.1,0-0.3,0-0.4-0.1c-0.1-0.1-2.9-1.8-5.6-4.2c-0.3-0.3-0.4-0.8-0.1-1.1c0.3-0.3,0.8-0.4,1.1-0.1c2.1,1.8,4.2,3.2,5,3.8
			c2.9-1.9,9.4-6.8,10.2-10.3c0.2-0.6,0.3-1.2,0.3-1.8c0-2-1.1-3.9-2.9-4.9c-2.3-1.3-5.3-0.7-7,1.3c-0.3,0.4-0.9,0.4-1.2,0
			c-1.7-2-4.7-2.6-7-1.3c-1.8,1-2.9,2.9-2.9,4.9c0,0.6,0.1,1.2,0.3,1.7c0.1,0.5,0.3,1,0.6,1.6h4.6l1.6-3.6c0.1-0.3,0.5-0.5,0.8-0.5
			c0.3,0,0.6,0.3,0.7,0.6l1.2,4.9l1.5-2.5c0.1-0.2,0.4-0.4,0.7-0.4h2.9c0.4,0,0.8,0.4,0.8,0.8c0,0.4-0.4,0.8-0.8,0.8h-2.4L31,37.3
			c-0.1,0.2-0.4,0.4-0.7,0.4c0,0-0.1,0-0.1,0c-0.3,0-0.6-0.3-0.7-0.6l-1.1-4.5l-0.8,1.9c-0.1,0.3-0.4,0.5-0.7,0.5h-9.2
			c-0.4,0-0.8-0.4-0.8-0.8c0-0.4,0.4-0.8,0.8-0.8H20c-0.2-0.4-0.3-0.8-0.4-1.1c-0.2-0.6-0.3-1.4-0.3-2.1c0-2.6,1.4-5,3.7-6.3
			c2.7-1.5,6.2-1,8.4,1.1c2.2-2.1,5.7-2.5,8.4-1.1C42,25.1,43.4,27.5,43.4,30.1"/>
	</g>
	<g>
		<circle class="st1" cx="31" cy="32" r="23.3"/>
	</g>
</g>
</svg>
