<?xml version="1.0" encoding="utf-8"?>
<!-- Generator: Adobe Illustrator 19.1.0, SVG Export Plug-In . SVG Version: 6.00 Build 0)  -->
<svg version="1.0" id="Calque_1" xmlns="http://www.w3.org/2000/svg" xmlns:xlink="http://www.w3.org/1999/xlink" x="0px" y="0px"
	 viewBox="0 0 60 60" style="enable-background:new 0 0 60 60;" xml:space="preserve">
<style type="text/css">
	.st0{clip-path:url(#SVGID_2_);fill:none;stroke:#FFD60F;stroke-width:1.1749;stroke-linecap:round;}
	.st1{fill:#FFD62D;}
	.st2{fill:none;stroke:#FFD60F;stroke-width:1.3915;stroke-linecap:round;}
	.st3{fill:none;stroke:#FFD60F;stroke-width:1.1749;stroke-linecap:round;}
</style>
<g>
	<g>
		<g>
			<defs>
				<rect id="SVGID_1_" x="6.5" y="8.1" width="47.8" height="47.8"/>
			</defs>
			<clipPath id="SVGID_2_">
				<use xlink:href="#SVGID_1_"  style="overflow:visible;"/>
			</clipPath>
			<circle class="st0" cx="30.4" cy="32" r="23.3"/>
		</g>
	</g>
	<g>
		<g>
			<path class="st1" d="M15,42.9c0-0.1,0-0.7,0-0.9c-0.1,0-0.2-0.1-0.3-0.1c-1.1-0.3-1.9-1.3-1.9-2.5c0-2.4,0-4.8,0-7.2
				c0-1.5,1.2-2.6,2.7-2.6c2.3,0,4.7,0,7,0c0.4,0,0.7,0.1,1,0.4c1.2,1,2.3,1.9,3.5,2.9c0.2,0.2,0.3,0.1,0.5,0
				c1.1-0.9,2.3-1.8,3.4-2.7c0.8-0.6,1.8-0.5,2.3,0.2c0.6,0.7,0.4,1.7-0.3,2.3c-1.5,1.2-3.1,2.5-4.6,3.7c-0.7,0.5-1.4,0.5-2.1,0
				c-0.9-0.8-1.9-1.6-2.8-2.3c-0.1-0.1-0.2-0.1-0.3-0.2c0,0.2,0,0.3,0,0.4c0,2.9,0,5.8,0,8.7L15,42.9z"/>
			<path class="st1" d="M19,28.2c-2,0-3.6-1.6-3.6-3.6c0-2,1.6-3.6,3.6-3.6c2,0,3.6,1.6,3.6,3.6C22.6,26.7,21,28.2,19,28.2z"/>
		</g>
		<g>
			<path class="st2" d="M27.5,30.1c0.7-0.6,1.5-1.2,2.2-1.7c0.9-0.7,1.9-0.9,3-0.7c1.5,0.3,2.5,1.3,2.9,2.8c0.4,1.5-0.1,2.8-1.3,3.8
				c-1.4,1.1-2.8,2.2-4.2,3.3c-0.9,0.7-1.8,1.3-3,1.3c0,0.1,0,0.3,0,0.4c0.2,1.1,1.1,1.9,2.2,1.9c1.9,0,3.8,0,5.7,0
				c0.4,0,0.7,0,1.1,0h2.8c0.2,0,0.3,0,0.4,0c2.1,0,4.2,0,6.3,0c1.4,0,2.3-0.9,2.3-2.3c0-5,0-10,0-15c0-0.2,0-0.5-0.1-0.7
				c-0.3-1-1.1-1.7-2.3-1.7c-5.4,0-10.9,0-16.3,0c-0.1,0-0.1,0-0.2,0c-1.2,0-2.1,1-2.1,2.2c0,2.1,0,4.3,0,6.4L27.5,30.1
				c0.7-0.6,1.5-1.2,2.2-1.7c0.9-0.7,1.9-0.9,3-0.7c1.5,0.3,2.5,1.3,2.9,2.8c0.4,1.5-0.1,2.8-1.3,3.8c-1.4,1.1-2.8,2.2-4.2,3.3
				c-0.9,0.7-1.8,1.3-3,1.3c0,0.1,0,0.3,0,0.4c0.2,1.1,1.1,1.9,2.2,1.9c1.9,0,3.8,0,5.7,0c0.4,0,0.7,0,1.1,0"/>
			<line class="st3" x1="44.8" y1="27" x2="37.6" y2="27"/>
			<line class="st3" x1="43.7" y1="29.1" x2="37.6" y2="29.1"/>
			<line class="st3" x1="43.7" y1="35.4" x2="37.6" y2="35.4"/>
			<line class="st3" x1="46.1" y1="31.2" x2="37.6" y2="31.2"/>
			<line class="st3" x1="41.9" y1="33.3" x2="37.6" y2="33.3"/>
		</g>
	</g>
</g>
</svg>
