<?xml version="1.0" encoding="utf-8"?>
<!-- Generator: Adobe Illustrator 19.1.0, SVG Export Plug-In . SVG Version: 6.00 Build 0)  -->
<svg version="1.0" id="Calque_1" xmlns="http://www.w3.org/2000/svg" xmlns:xlink="http://www.w3.org/1999/xlink" x="0px" y="0px"
	 viewBox="0 0 60 60" style="enable-background:new 0 0 60 60;" xml:space="preserve">
<style type="text/css">
	.st0{clip-path:url(#SVGID_2_);fill:none;stroke:#FFD60F;stroke-width:1.1749;stroke-linecap:round;}
	
		.st1{clip-path:url(#SVGID_2_);fill:none;stroke:#FFD60F;stroke-width:1.517;stroke-linecap:round;stroke-linejoin:round;stroke-miterlimit:10;}
	
		.st2{clip-path:url(#SVGID_2_);fill:none;stroke:#FFD60F;stroke-width:1.1749;stroke-linecap:round;stroke-linejoin:round;stroke-miterlimit:10;}
</style>
<g>
	<defs>
		<rect id="SVGID_1_" x="6.9" y="8.1" width="47.8" height="47.8"/>
	</defs>
	<clipPath id="SVGID_2_">
		<use xlink:href="#SVGID_1_"  style="overflow:visible;"/>
	</clipPath>
	<circle class="st0" cx="30.7" cy="32" r="23.3"/>
	<path class="st1" d="M26.3,29.3c1.9,0,3.7,0.7,4.9,1.8c0.9,0.8,5.8,5,6.2,5.3c0.7,0.6,1.1,1.5,1.1,2.5c0,1-0.4,1.9-1.1,2.5
		c-0.7,0.6-1.7,1-2.7,1c-3.1,0-4.8,0-8.4,0c-2,0-3.8-0.7-5.1-1.9c-1.3-1.2-2.1-2.8-2.1-4.7s0.8-3.5,2.1-4.7
		C22.6,30,24.4,29.3,26.3,29.3z M26.1,23.2h-7.3 M37.3,22.3h5.5l1.5-3.4 M39.5,22.3l-4,12.1 M22.8,23.2l2.3,6 M20.9,45.1h16.2"/>
	<path class="st2" d="M28.5,40.6h4.8 M28.2,37.6l2.6,2.8 M27.1,33.7c1.2,0,2.1,1,2.1,2.1c0,1.2-1,2.1-2.1,2.1c-1.2,0-2.1-1-2.1-2.1
		C25,34.7,25.9,33.7,27.1,33.7z"/>
</g>
</svg>
