<?xml version="1.0" encoding="utf-8"?>
<!-- Generator: Adobe Illustrator 19.1.0, SVG Export Plug-In . SVG Version: 6.00 Build 0)  -->
<svg version="1.0" id="Calque_1" xmlns="http://www.w3.org/2000/svg" xmlns:xlink="http://www.w3.org/1999/xlink" x="0px" y="0px"
	 viewBox="0 0 60 60" style="enable-background:new 0 0 60 60;" xml:space="preserve">
<style type="text/css">
	.st0{fill:#FFD60F;}
	.st1{fill:none;stroke:#FFD60F;stroke-width:1.1749;stroke-linecap:round;}
</style>
<g>
	<g>
		<path class="st0" d="M29.6,40.5l-1,8.8h-0.9l-0.4-4l-0.1-1l-0.1,1l-0.4,4H26l-1-8.8H26l0.4,4l0.1,0.9l0.1-0.9l0.3-4h0.8l0.3,4
			l0.1,0.9l0.1-0.9l0.4-4H29.6z"/>
		<path class="st0" d="M31.1,49.3H30v-8.8h1.1V49.3z"/>
		<path class="st0" d="M34.2,41.6h-1.5v2.7h1v1.1h-1v4h-1.1v-8.8h2.5V41.6z"/>
		<path class="st0" d="M35.7,49.3h-1.1v-8.8h1.1V49.3z"/>
	</g>
	<g>
		<circle class="st1" cx="30.4" cy="32" r="23.3"/>
	</g>
	<g>
		<path class="st0" d="M45.3,23.9c0,0.5-0.3,1-0.9,1.2c-0.5,0.2-1.1,0-1.5-0.4c-0.7-0.8-1.4-1.5-2.2-2.1c-2.1-1.7-4.5-2.9-7.2-3.4
			c-1.5-0.3-3-0.4-4.5-0.2c-2,0.2-3.9,0.7-5.6,1.6c-2.1,1-3.9,2.4-5.4,4.2c-0.5,0.6-1.3,0.7-1.9,0.2c-0.6-0.5-0.6-1.3-0.2-1.9
			c1.6-1.9,3.6-3.5,5.8-4.7c1.6-0.8,3.3-1.4,5.1-1.8c1.5-0.3,3-0.4,4.6-0.3c2.5,0.1,4.9,0.7,7.2,1.8c1.8,0.9,3.4,2,4.9,3.4
			c0.5,0.5,1,1.1,1.5,1.6C45.2,23.2,45.3,23.6,45.3,23.9z"/>
		<path class="st0" d="M30.8,21.6c3.2,0.1,6.3,1.3,8.9,3.7c0.4,0.4,0.7,0.7,1.1,1.2c0.4,0.4,0.4,1,0.1,1.5c-0.3,0.5-0.7,0.8-1.3,0.7
			c-0.4,0-0.7-0.2-1-0.5c-0.8-1-1.8-1.8-2.8-2.4c-1.4-0.8-2.8-1.3-4.4-1.4c-3.4-0.3-6.2,0.8-8.7,3.1c-0.2,0.2-0.5,0.5-0.7,0.7
			c-0.4,0.4-0.8,0.6-1.4,0.4c-0.5-0.1-0.9-0.5-1-1c-0.1-0.4,0-0.8,0.3-1.2c2-2.3,4.5-3.8,7.5-4.5C28.4,21.7,29.5,21.6,30.8,21.6z"/>
		<path class="st0" d="M30.3,27c2.6,0.1,4.7,1,6.3,2.9c0.5,0.6,0.4,1.4-0.2,1.9c-0.6,0.5-1.4,0.4-1.9-0.1c-0.5-0.6-1.1-1.1-1.8-1.4
			c-2-1-4.5-0.6-6.1,1c-0.1,0.1-0.3,0.3-0.4,0.4c-0.5,0.5-1.3,0.6-1.9,0.1c-0.6-0.5-0.7-1.3-0.2-1.9c1.3-1.6,3-2.5,5.1-2.8
			C29.6,27.1,30,27.1,30.3,27z"/>
		<path class="st0" d="M27.7,35.2c0-1.5,1.2-2.7,2.7-2.7c1.5,0,2.7,1.2,2.7,2.7c0,1.6-1.3,2.7-2.8,2.7
			C28.9,37.9,27.7,36.7,27.7,35.2z"/>
	</g>
</g>
</svg>
