<?xml version="1.0" encoding="utf-8"?>
<!-- Generator: Adobe Illustrator 19.1.0, SVG Export Plug-In . SVG Version: 6.00 Build 0)  -->
<svg version="1.0" id="Calque_1" xmlns="http://www.w3.org/2000/svg" xmlns:xlink="http://www.w3.org/1999/xlink" x="0px" y="0px"
	 viewBox="0 0 60 60" style="enable-background:new 0 0 60 60;" xml:space="preserve">
<style type="text/css">
	.st0{fill:none;stroke:#FFD60F;stroke-width:1.1749;stroke-linecap:round;}
	.st1{fill:#FFD60F;}
</style>
<g>
	<g>
		<circle class="st0" cx="30.5" cy="32.3" r="23.3"/>
	</g>
	<g transform="translate(0,-952.36218)">
		<path class="st1" d="M30.5,970.6c-7.8,0-14.1,6.3-14.1,14.1s6.3,14.1,14.1,14.1s14.1-6.3,14.1-14.1S38.2,970.6,30.5,970.6z
			 M30.5,972.9c6.6,0,11.8,5.3,11.8,11.8c0,6.6-5.3,11.8-11.8,11.8s-11.8-5.3-11.8-11.8C18.6,978.1,23.9,972.9,30.5,972.9z
			 M30.5,974.7c-0.6,0-1.1,0.5-1.1,1.1v8.9c0,0.4,0.2,0.8,0.6,1l7.1,4.1c0.5,0.3,1.2,0.1,1.5-0.4c0.3-0.5,0.1-1.2-0.4-1.5l-6.5-3.7
			v-8.2C31.6,975.2,31.1,974.7,30.5,974.7z"/>
	</g>
</g>
</svg>
