<?xml version="1.0" encoding="utf-8"?>
<!-- Generator: Adobe Illustrator 19.1.0, SVG Export Plug-In . SVG Version: 6.00 Build 0)  -->
<svg version="1.0" id="Calque_1" xmlns="http://www.w3.org/2000/svg" xmlns:xlink="http://www.w3.org/1999/xlink" x="0px" y="0px"
	 viewBox="0 0 60 60" style="enable-background:new 0 0 60 60;" xml:space="preserve">
<style type="text/css">
	.st0{clip-path:url(#SVGID_2_);fill:none;stroke:#FFD60F;stroke-width:1.1749;stroke-linecap:round;}
	.st1{fill:#FFD60F;}
</style>
<g>
	<g>
		<g>
			<defs>
				<rect id="SVGID_1_" x="6.5" y="8.4" width="47.8" height="47.8"/>
			</defs>
			<clipPath id="SVGID_2_">
				<use xlink:href="#SVGID_1_"  style="overflow:visible;"/>
			</clipPath>
			<circle class="st0" cx="30.4" cy="32.2" r="23.3"/>
		</g>
	</g>
	<g>
		<g>
			<path class="st1" d="M33.7,23.4h6v19.9h-3.9V29.8c0-0.4,0-0.9,0-1.6c0-0.7,0-1.2,0-1.6l-3.8,16.7h-4l-3.7-16.7c0,0.4,0,0.9,0,1.6
				c0,0.7,0,1.2,0,1.6v13.5h-3.9V23.4h6.1L30.1,39L33.7,23.4z"/>
		</g>
		<g>
			<path class="st1" d="M42.9,27.2c0.2-0.6,0.8-1.2,1.7-1.8c0.8-0.6,1.3-0.9,1.5-1.2c0.3-0.4,0.5-0.8,0.5-1.2c0-0.4-0.1-0.7-0.3-0.9
				c-0.2-0.2-0.5-0.4-0.9-0.4c-0.5,0-0.9,0.2-1,0.6c-0.1,0.2-0.2,0.6-0.2,1h-1.6c0-0.7,0.2-1.3,0.4-1.8c0.4-0.8,1.2-1.3,2.4-1.3
				c0.9,0,1.6,0.2,2.1,0.7c0.5,0.5,0.8,1.2,0.8,2c0,0.6-0.2,1.2-0.6,1.7c-0.2,0.3-0.7,0.7-1.2,1.1l-0.7,0.5
				c-0.4,0.3-0.7,0.5-0.9,0.6c-0.2,0.1-0.3,0.3-0.4,0.5h3.7v1.5h-5.8C42.5,28.3,42.7,27.7,42.9,27.2z"/>
		</g>
	</g>
</g>
</svg>
