<?xml version="1.0" encoding="utf-8"?>
<!-- Generator: Adobe Illustrator 19.1.0, SVG Export Plug-In . SVG Version: 6.00 Build 0)  -->
<svg version="1.0" id="Calque_1" xmlns="http://www.w3.org/2000/svg" xmlns:xlink="http://www.w3.org/1999/xlink" x="0px" y="0px"
	 viewBox="0 0 60 60" style="enable-background:new 0 0 60 60;" xml:space="preserve">
<style type="text/css">
	.st0{fill:none;stroke:#FFD60F;stroke-width:1.1749;stroke-linecap:round;}
	.st1{fill:#FFD60F;}
</style>
<g>
	<g>
		<circle class="st0" cx="30.7" cy="32.4" r="23.3"/>
	</g>
	<path class="st1" d="M34.9,37.2c2-3,4.1-7,4.1-10.6c0-4.5-3.7-8.3-8.3-8.3s-8.3,3.7-8.3,8.3c0,3.6,2.1,7.6,4.1,10.6
		c-4.7,0.6-8.6,2.1-8.6,4.5c0,3.1,6.4,4.8,12.8,4.8s12.7-1.6,12.7-4.7C43.4,39.3,39.6,37.8,34.9,37.2z M24.4,26.6
		c0-3.5,2.9-6.4,6.4-6.4s6.4,2.9,6.4,6.4c0,4.8-4.6,10.9-6.4,13C29,37.5,24.4,31.5,24.4,26.6z M30.7,44.6c-7,0-10.8-1.9-10.8-2.9
		c0-0.8,2.8-2.3,7.9-2.8c1.2,1.6,2.1,2.6,2.2,2.8c0.2,0.2,0.4,0.3,0.7,0.3s0.5-0.1,0.7-0.3c0.1-0.1,1-1.2,2.2-2.8
		c5.2,0.4,7.9,1.9,7.9,2.8C41.6,42.7,37.8,44.6,30.7,44.6z M34.3,26.4c0-1.9-1.6-3.5-3.5-3.5s-3.5,1.6-3.5,3.5s1.6,3.5,3.5,3.5
		S34.3,28.3,34.3,26.4z M29.1,26.4c0-0.9,0.8-1.6,1.6-1.6s1.6,0.8,1.6,1.6s-0.8,1.6-1.6,1.6S29.1,27.3,29.1,26.4z"/>
</g>
</svg>
