<?xml version="1.0" encoding="utf-8"?>
<!-- Generator: Adobe Illustrator 19.1.0, SVG Export Plug-In . SVG Version: 6.00 Build 0)  -->
<svg version="1.0" id="Calque_1" xmlns="http://www.w3.org/2000/svg" xmlns:xlink="http://www.w3.org/1999/xlink" x="0px" y="0px"
	 viewBox="0 0 60 60" style="enable-background:new 0 0 60 60;" xml:space="preserve">
<style type="text/css">
	.st0{fill:none;stroke:#FFD60F;stroke-width:1.1749;stroke-linecap:round;}
	.st1{fill:#FFD60F;}
</style>
<g>
	<g>
		<circle class="st0" cx="30.2" cy="32.4" r="23.3"/>
	</g>
	<g>
		<path class="st1" d="M39.8,23.3H20.6c-1.6,0-2.9,1.3-2.9,2.9v12.5c0,1.6,1.3,2.9,2.9,2.9h19.1c1.6,0,2.9-1.3,2.9-2.9V26.2
			C42.7,24.6,41.3,23.3,39.8,23.3z M20.6,24.9h19.1c0.1,0,0.2,0,0.4,0l-9.9,7.6L20.3,25C20.4,24.9,20.5,24.9,20.6,24.9z M41,38.6
			c0,0.7-0.5,1.2-1.2,1.2H20.6c-0.7,0-1.2-0.5-1.2-1.2V26.3l10.8,8.3L41,26.4V38.6z"/>
	</g>
</g>
</svg>
