<?xml version="1.0" encoding="utf-8"?>
<!-- Generator: Adobe Illustrator 19.1.0, SVG Export Plug-In . SVG Version: 6.00 Build 0)  -->
<svg version="1.1" id="Calque_1" xmlns="http://www.w3.org/2000/svg" xmlns:xlink="http://www.w3.org/1999/xlink" x="0px" y="0px"
	 viewBox="5 -5 60 60" style="enable-background:new 5 -5 60 60;" xml:space="preserve">
<style type="text/css">
	.st0{fill:none;stroke:#FFD60C;stroke-width:1.1749;stroke-linecap:round;}
	.st1{fill:none;stroke:#FDD528;stroke-width:0.8582;stroke-miterlimit:10;}
	.st2{fill:none;stroke:#FDD528;stroke-width:1.3778;stroke-miterlimit:10;}
</style>
<g>
	<g>
		<g>
			<g>
				<circle class="st0" cx="35.7" cy="26" r="23.3"/>
			</g>
		</g>
		<g>
			
				<ellipse transform="matrix(0.9151 -0.4031 0.4031 0.9151 -10.7748 11.7057)" class="st1" cx="22.4" cy="31.4" rx="3.7" ry="8.1"/>
			<ellipse transform="matrix(0.9151 -0.4031 0.4031 0.9151 -10.7748 11.7057)" class="st2" cx="22.4" cy="31.4" rx="3.2" ry="7"/>
			<path class="st1" d="M19.2,24.1l26.6-10.2c0,0,1.9-0.8,3.1-0.2c1.3,0.6,2.9,1.8,4.2,5c0.6,1.6,1.5,6-0.6,7
				c-2.1,1-26.8,13.1-26.8,13.1"/>
			<path class="st1" d="M22,23c0,0,7.8,3.7,6.7,14.4"/>
			<path class="st1" d="M24.1,22c0,0,7.8,3.7,6.7,14.4"/>
			<path class="st1" d="M31.7,19.3c0,0,8.4,2.8,6.4,13.5"/>
			<path class="st1" d="M33.7,18.5c-0.2,0.1,7.8,2.8,6.1,13.4"/>
			<path class="st1" d="M35.4,17.8c0,0,8.2,3.4,5.9,13.5"/>
			<path class="st1" d="M37,17.1c0,0,7.9,3.2,6.1,13"/>
			<path class="st1" d="M38.7,16.6c0,0,7.5,2.8,6.2,12.8"/>
			<path class="st1" d="M43.4,14.7c0,0,8.3,3.1,5.7,12.7"/>
			<path class="st1" d="M45.2,14c0,0,8.3,2.8,5.7,12.4"/>
			<line class="st1" x1="26" y1="30.4" x2="53" y2="18.7"/>
			<line class="st1" x1="53.6" y1="21" x2="26.8" y2="33"/>
			<line class="st1" x1="27.1" y1="35.5" x2="53.7" y2="23"/>
		</g>
	</g>
</g>
</svg>
