<?xml version="1.0" encoding="utf-8"?>
<!-- Generator: Adobe Illustrator 19.1.0, SVG Export Plug-In . SVG Version: 6.00 Build 0)  -->
<svg version="1.0" id="Calque_1" xmlns="http://www.w3.org/2000/svg" xmlns:xlink="http://www.w3.org/1999/xlink" x="0px" y="0px"
	 viewBox="0 0 60 60" style="enable-background:new 0 0 60 60;" xml:space="preserve">
<style type="text/css">
	.st0{clip-path:url(#SVGID_2_);fill:none;stroke:#FFD60F;stroke-width:1.1749;stroke-linecap:round;}
	.st1{fill:#FFD60F;}
</style>
<g>
	<g>
		<defs>
			<rect id="SVGID_1_" x="7.2" y="8.8" width="47.8" height="47.8"/>
		</defs>
		<clipPath id="SVGID_2_">
			<use xlink:href="#SVGID_1_"  style="overflow:visible;"/>
		</clipPath>
		<circle class="st0" cx="31.1" cy="32.6" r="23.3"/>
	</g>
	<g>
		<path class="st1" d="M39.5,35.2C38,36.4,35.9,37,33.2,37H28v9h-5.2V21h10.8c2.5,0,4.5,0.6,5.9,1.9c1.5,1.3,2.2,3.3,2.2,6
			C41.7,31.9,41,33.9,39.5,35.2z M35.5,26.1c-0.7-0.6-1.6-0.8-2.8-0.8H28v7.4h4.7c1.2,0,2.1-0.3,2.8-0.9s1-1.6,1-2.9
			S36.2,26.7,35.5,26.1z"/>
	</g>
</g>
</svg>
