<?xml version="1.0" encoding="utf-8"?>
<!-- Generator: Adobe Illustrator 19.1.0, SVG Export Plug-In . SVG Version: 6.00 Build 0)  -->
<svg version="1.0" id="Calque_1" xmlns="http://www.w3.org/2000/svg" xmlns:xlink="http://www.w3.org/1999/xlink" x="0px" y="0px"
	 viewBox="5 -5 60 60" style="enable-background:new 5 -5 60 60;" xml:space="preserve">
<style type="text/css">
	.st0{fill:none;stroke:#FFD60C;stroke-width:1.1749;stroke-linecap:round;}
	.st1{fill:none;stroke:#FFD60C;stroke-width:2.8829;stroke-miterlimit:10;}
	.st2{fill:#FFD60C;}
	.st3{fill:none;stroke:#FFD60C;stroke-width:3.3261;stroke-miterlimit:10;}
</style>
<g>
	<g>
		<g>
			<circle class="st0" cx="35.3" cy="27.7" r="23.5"/>
		</g>
	</g>
	<g>
		<path class="st1" d="M35.3,21.3c-3.5,0-6.4,2.9-6.4,6.4c0,3.5,2.9,6.4,6.4,6.4c3.5,0,6.4-2.9,6.4-6.4
			C41.6,24.2,38.8,21.3,35.3,21.3z"/>
		<path class="st2" d="M43.5,21.3c-1,0-1.9-0.9-1.9-1.9c0-1,0.9-1.9,1.9-1.9c1,0,1.9,0.9,1.9,1.9C45.4,20.4,44.6,21.3,43.5,21.3z"/>
		<path class="st3" d="M44.2,13.6H26.3c-2.8,0-5.2,2.3-5.2,5.2v17.8c0,2.8,2.3,5.2,5.2,5.2h17.8c2.8,0,5.2-2.3,5.2-5.2V18.8
			C49.3,15.9,47,13.6,44.2,13.6z"/>
	</g>
</g>
</svg>
