<?xml version="1.0" encoding="utf-8"?>
<!-- Generator: Adobe Illustrator 19.1.0, SVG Export Plug-In . SVG Version: 6.00 Build 0)  -->
<svg version="1.0" id="Calque_1" xmlns="http://www.w3.org/2000/svg" xmlns:xlink="http://www.w3.org/1999/xlink" x="0px" y="0px"
	 viewBox="0 0 60 60" style="enable-background:new 0 0 60 60;" xml:space="preserve">
<style type="text/css">
	
		.st0{clip-path:url(#SVGID_2_);fill:none;stroke:#FFD60F;stroke-width:1.5654;stroke-linecap:round;stroke-linejoin:round;stroke-miterlimit:10;}
	
		.st1{clip-path:url(#SVGID_4_);fill:none;stroke:#FFD60F;stroke-width:1.1749;stroke-linecap:round;stroke-linejoin:round;stroke-miterlimit:10;}
	.st2{fill:none;stroke:#FFD60F;stroke-width:1.1749;stroke-linecap:round;}
</style>
<g>
	<g>
		<defs>
			<rect id="SVGID_1_" x="12.6" y="16.9" width="26.9" height="28.7"/>
		</defs>
		<clipPath id="SVGID_2_">
			<use xlink:href="#SVGID_1_"  style="overflow:visible;"/>
		</clipPath>
		<path class="st0" d="M15.7,44.4l3.8-11.6 M21,29.8l7.1,2l2.4,6.3 M20.9,21.8l-1.4-1.4l-6.1,4.1 M22.4,23.2l3.7,3.6h3.1 M26.6,19.3
			c0,0.9-0.7,1.6-1.6,1.6c-0.9,0-1.6-0.7-1.6-1.6c0-0.9,0.7-1.6,1.6-1.6C25.9,17.7,26.6,18.4,26.6,19.3z M26.1,45v-3.1h12.6V45"/>
	</g>
	<g>
		<defs>
			<rect id="SVGID_3_" x="31.9" y="22.4" width="16.7" height="17.9"/>
		</defs>
		<clipPath id="SVGID_4_">
			<use xlink:href="#SVGID_3_"  style="overflow:visible;"/>
		</clipPath>
		<path class="st1" d="M34.4,38.8l2.2-6.7 M37.5,30.4l4.1,1.2l1.4,3.6 M37.4,25.8L36.6,25L33,27.4 M38.3,26.6l2.1,2.1h1.8
			 M40.7,24.3c0,0.5-0.4,0.9-0.9,0.9c-0.5,0-0.9-0.4-0.9-0.9c0-0.5,0.4-0.9,0.9-0.9C40.3,23.4,40.7,23.8,40.7,24.3z M40.4,39.2v-1.8
			h7.3v1.8"/>
	</g>
	<g>
		<circle class="st2" cx="30.2" cy="32" r="23.3"/>
	</g>
</g>
</svg>
