<?xml version="1.0" encoding="utf-8"?>
<!-- Generator: Adobe Illustrator 19.1.0, SVG Export Plug-In . SVG Version: 6.00 Build 0)  -->
<svg version="1.0" id="Calque_1" xmlns="http://www.w3.org/2000/svg" xmlns:xlink="http://www.w3.org/1999/xlink" x="0px" y="0px"
	 viewBox="0 0 60 60" style="enable-background:new 0 0 60 60;" xml:space="preserve">
<style type="text/css">
	.st0{fill:none;stroke:#FFD60F;stroke-width:1.4036;stroke-linecap:round;}
	.st1{fill:#FFD60F;}
	.st2{font-family:'Cactus-Bold';}
	.st3{font-size:6.7389px;}
</style>
<g>
	<ellipse class="st0" cx="29.8" cy="30.1" rx="22.2" ry="22.1"/>
	<path class="st1" d="M31,34.2v1.9c0,0.3,0.3,0.6,0.6,0.6c0.3,0,0.6-0.3,0.6-0.6v-1.9l1.2,1.2c0.2,0.2,0.6,0.2,0.8,0
		c0.2-0.2,0.2-0.6,0-0.8l-2-2v-1.9l1.2,1.2c0.2,0.2,0.6,0.2,0.8,0c0.2-0.2,0.2-0.6,0-0.8l-2-2v-2.2l2,1.1l0.7,2.7
		c0.1,0.3,0.4,0.5,0.7,0.4c0.3-0.1,0.5-0.4,0.4-0.7l-0.4-1.6l1.6,0.9l0.7,2.7c0.1,0.3,0.4,0.5,0.7,0.4c0.3-0.1,0.5-0.4,0.4-0.7
		l-0.4-1.6l1.7,1c0.3,0.2,0.6,0.1,0.8-0.2c0.2-0.3,0.1-0.6-0.2-0.8l-1.7-1l1.6-0.4c0.3-0.1,0.5-0.4,0.4-0.7
		c-0.1-0.3-0.4-0.5-0.7-0.4l-2.7,0.7L36,27.9l1.6-0.4c0.3-0.1,0.5-0.4,0.4-0.7c-0.1-0.3-0.4-0.5-0.7-0.4l-2.7,0.7l-2-1.1l2-1.1
		l2.7,0.7c0.3,0.1,0.6-0.1,0.7-0.4c0.1-0.3-0.1-0.6-0.4-0.7L36,24l1.6-0.9l2.7,0.7c0.3,0.1,0.6-0.1,0.7-0.4c0.1-0.3-0.1-0.6-0.4-0.7
		L39,22.3l1.7-1c0.3-0.2,0.4-0.5,0.2-0.8c-0.2-0.3-0.5-0.4-0.8-0.2l-1.7,1l0.4-1.6c0.1-0.3-0.1-0.6-0.4-0.7
		c-0.3-0.1-0.6,0.1-0.7,0.4l-0.7,2.7l-1.6,0.9l0.4-1.6c0.1-0.3-0.1-0.6-0.4-0.7c-0.3-0.1-0.6,0.1-0.7,0.4l-0.7,2.7l-2,1.1v-2.2l2-2
		c0.2-0.2,0.2-0.6,0-0.8c-0.2-0.2-0.6-0.2-0.8,0l-1.2,1.2v-1.9l2-2c0.2-0.2,0.2-0.6,0-0.8c-0.2-0.2-0.6-0.2-0.8,0l-1.2,1.2v-1.9
		c0-0.3-0.3-0.6-0.6-0.6c-0.3,0-0.6,0.3-0.6,0.6v1.9V34.2z"/>
	<path class="st1" d="M25.9,30.7c-1.3-1.3-1.9-3.1-1.9-4.9c0.1-1.8,0.8-3.5,2.2-4.8c1.1-1,2.4-1.6,3.9-1.8v-1.1
		c-1.7,0.2-3.3,0.9-4.6,2.1c-3.2,3-3.4,8-0.4,11.3c1.4,1.5,3.2,2.3,5,2.5v-1.1C28.5,32.6,27,31.9,25.9,30.7"/>
	<path class="st1" d="M23.8,19.6c0.2,0.2,0.6,0.2,0.8,0c0.2-0.2,0.2-0.6,0-0.8l-2.1-2.1c-0.2-0.2-0.6-0.2-0.8,0
		c-0.2,0.2-0.2,0.6,0,0.8L23.8,19.6z"/>
	<path class="st1" d="M22,26c0-0.3-0.2-0.6-0.6-0.6h-3c-0.3,0-0.6,0.2-0.6,0.6c0,0.3,0.2,0.6,0.6,0.6h3C21.7,26.5,22,26.3,22,26"/>
	<path class="st1" d="M23.9,32.3l-2.1,2.1c-0.2,0.2-0.2,0.6,0,0.8c0.2,0.2,0.6,0.2,0.8,0l2.1-2.1c0.2-0.2,0.2-0.6,0-0.8
		C24.5,32.1,24.1,32.1,23.9,32.3"/>
	<path class="st1" d="M26.7,17.4c0.1,0.3,0.4,0.4,0.7,0.3c0.3-0.1,0.4-0.4,0.3-0.7l-1.1-2.8c-0.1-0.3-0.4-0.4-0.7-0.3
		c-0.3,0.1-0.4,0.4-0.3,0.7L26.7,17.4z"/>
	<path class="st1" d="M19.1,21.7l2.8,1.1c0.3,0.1,0.6,0,0.7-0.3c0.1-0.3,0-0.6-0.3-0.7l-2.8-1.1c-0.3-0.1-0.6,0-0.7,0.3
		C18.7,21.3,18.8,21.6,19.1,21.7"/>
	<path class="st1" d="M22.7,29.4c-0.1-0.3-0.4-0.4-0.7-0.3l-2.8,1.1c-0.3,0.1-0.4,0.4-0.3,0.7s0.4,0.4,0.7,0.3l2.8-1.1
		C22.6,30,22.8,29.7,22.7,29.4"/>
	<path class="st1" d="M27.6,34.2c-0.3-0.1-0.6,0-0.7,0.3l-1.1,2.8c-0.1,0.3,0,0.6,0.3,0.7c0.3,0.1,0.6,0,0.7-0.3l1.1-2.8
		C28,34.7,27.9,34.3,27.6,34.2"/>
</g>
<text transform="matrix(1 0 0 1 18.4164 44.4372)"><tspan x="0" y="0" class="st1 st2 st3">CLIM</tspan><tspan x="8.2" y="0" class="st1 st2 st3">A</tspan><tspan x="10.2" y="0" class="st1 st2 st3">TIS</tspan><tspan x="15.2" y="0" class="st1 st2 st3">A</tspan><tspan x="17.2" y="0" class="st1 st2 st3">TION</tspan></text>
</svg>
