<?xml version="1.0" encoding="utf-8"?>
<!-- Generator: Adobe Illustrator 19.1.0, SVG Export Plug-In . SVG Version: 6.00 Build 0)  -->
<svg version="1.0" id="Calque_1" xmlns="http://www.w3.org/2000/svg" xmlns:xlink="http://www.w3.org/1999/xlink" x="0px" y="0px"
	 viewBox="0 0 60 60" style="enable-background:new 0 0 60 60;" xml:space="preserve">
<style type="text/css">
	.st0{clip-path:url(#SVGID_2_);fill:none;stroke:#FFD60F;stroke-width:1.1749;stroke-linecap:round;}
	.st1{fill:#FFD62D;}
</style>
<g>
	<g>
		<defs>
			<rect id="SVGID_1_" x="6.9" y="8.1" width="47.8" height="47.8"/>
		</defs>
		<clipPath id="SVGID_2_">
			<use xlink:href="#SVGID_1_"  style="overflow:visible;"/>
		</clipPath>
		<circle class="st0" cx="30.8" cy="32" r="23.3"/>
	</g>
	<path class="st1" d="M39.7,27.4c0-4.9-4-8.9-8.9-8.9c-4.9,0-8.9,4-8.9,8.9c0,4.6,3.5,8.4,8.1,8.9v3.5h-3.3c-0.5,0-0.9,0.4-0.9,0.9
		s0.4,0.9,0.9,0.9h3.3v3c0,0.5,0.4,0.9,0.9,0.9c0.5,0,0.9-0.4,0.9-0.9v-3h3.3c0.5,0,0.9-0.4,0.9-0.9s-0.4-0.9-0.9-0.9h-3.3v-3.5
		C36.2,35.8,39.7,32,39.7,27.4z M23.6,27.4c0-4,3.2-7.2,7.2-7.2c4,0,7.2,3.2,7.2,7.2c0,4-3.2,7.2-7.2,7.2S23.6,31.3,23.6,27.4z"/>
</g>
</svg>
