<?xml version="1.0" encoding="utf-8"?>
<!-- Generator: Adobe Illustrator 19.1.0, SVG Export Plug-In . SVG Version: 6.00 Build 0)  -->
<svg version="1.0" id="Calque_1" xmlns="http://www.w3.org/2000/svg" xmlns:xlink="http://www.w3.org/1999/xlink" x="0px" y="0px"
	 viewBox="0 0 60 60" style="enable-background:new 0 0 60 60;" xml:space="preserve">
<style type="text/css">
	.st0{clip-path:url(#SVGID_2_);fill:none;stroke:#FFD60F;stroke-width:1.1749;stroke-linecap:round;}
	.st1{fill:none;stroke:#FFD60F;stroke-width:1.1532;stroke-linecap:round;stroke-miterlimit:10;}
	.st2{fill:#FFD62D;}
</style>
<g>
	<g>
		<g>
			<defs>
				<rect id="SVGID_1_" x="7.1" y="8.1" width="47.8" height="47.8"/>
			</defs>
			<clipPath id="SVGID_2_">
				<use xlink:href="#SVGID_1_"  style="overflow:visible;"/>
			</clipPath>
			<circle class="st0" cx="31" cy="32" r="23.3"/>
		</g>
	</g>
	<g>
		<path class="st1" d="M38.6,32.7H24c-0.2,0-0.4,0.2-0.4,0.4v1.2c0,0.2,0.2,0.4,0.4,0.4h14.6c0.2,0,0.4-0.2,0.4-0.4v-1.2
			C39,32.9,38.8,32.7,38.6,32.7z"/>
		<path class="st2" d="M31.3,36.3c-0.6,0-1.2,0.5-1.2,1.2v2.4c0,0.6,0.5,1.2,1.2,1.2c0.6,0,1.2-0.5,1.2-1.2v-2.4
			C32.4,36.8,31.9,36.3,31.3,36.3z"/>
		<path class="st2" d="M31.3,43.3c-0.6,0-1.2,0.5-1.2,1.2v2.4c0,0.6,0.5,1.2,1.2,1.2c0.6,0,1.2-0.5,1.2-1.2v-2.4
			C32.4,43.9,31.9,43.3,31.3,43.3z"/>
		<path class="st2" d="M26.5,36.3c-0.6,0-1.2,0.5-1.2,1.2v2.4c0,0.6,0.5,1.2,1.2,1.2c0.6,0,1.2-0.5,1.2-1.2v-2.4
			C27.6,36.8,27.1,36.3,26.5,36.3z"/>
		<path class="st2" d="M26.5,43.3c-0.6,0-1.2,0.5-1.2,1.2v2.4c0,0.6,0.5,1.2,1.2,1.2c0.6,0,1.2-0.5,1.2-1.2v-2.4
			C27.6,43.9,27.1,43.3,26.5,43.3z"/>
		<path class="st2" d="M36.2,36.3c-0.6,0-1.2,0.5-1.2,1.2v2.4c0,0.6,0.5,1.2,1.2,1.2c0.6,0,1.2-0.5,1.2-1.2v-2.4
			C37.3,36.8,36.8,36.3,36.2,36.3z"/>
		<path class="st2" d="M36.2,43.3c-0.6,0-1.2,0.5-1.2,1.2v2.4c0,0.6,0.5,1.2,1.2,1.2c0.6,0,1.2-0.5,1.2-1.2v-2.4
			C37.3,43.9,36.8,43.3,36.2,43.3z"/>
		<path class="st1" d="M30.1,20.2v3.1h-1.2c-0.7,0-1.4,0.6-1.4,1.4v1.2c-1.9,0.8-3.1,2.4-3.3,4.6c0,0.3,0.2,0.5,0.4,0.5h13.1
			c0.3,0,0.5-0.2,0.4-0.5c-0.1-2.2-1.4-3.8-3.2-4.6v-1.2c0-0.7-0.6-1.4-1.4-1.4h-1.2v-3.1c0-2.4-1.9-4.3-4.3-4.3h-6.5
			c-0.4,0-0.7,0.3-0.7,0.7v1c0,0.4,0.3,0.7,0.7,0.7h6.5C29.3,18.3,30.1,19.1,30.1,20.2z"/>
	</g>
</g>
</svg>
