<?xml version="1.0" encoding="utf-8"?>
<!-- Generator: Adobe Illustrator 19.1.0, SVG Export Plug-In . SVG Version: 6.00 Build 0)  -->
<svg version="1.0" id="Calque_1" xmlns="http://www.w3.org/2000/svg" xmlns:xlink="http://www.w3.org/1999/xlink" x="0px" y="0px"
	 viewBox="0 0 60 60" style="enable-background:new 0 0 60 60;" xml:space="preserve">
<style type="text/css">
	.st0{fill:none;stroke:#FFD60F;stroke-width:1.1749;stroke-linecap:round;}
	.st1{fill:#FFD60F;}
</style>
<g>
	<g>
		<circle class="st0" cx="31" cy="32.4" r="23.3"/>
	</g>
	<g>
		<path class="st1" d="M35,18.4h-8.1c-2.3,0-4.1,1.8-4.1,4.1v20c0,2.3,1.8,4.1,4.1,4.1H35c2.3,0,4.1-1.8,4.1-4.1v-20
			C39.1,20.2,37.3,18.4,35,18.4z M26.9,20.2H35c0.9,0,1.6,0.5,2,1.3H25C25.3,20.7,26,20.2,26.9,20.2z M24.7,23.4h12.5v15.3H24.7
			V23.4z M35,44.6h-8.1c-1.2,0-2.2-1-2.2-2.2v-1.9h12.5v1.9C37.2,43.6,36.3,44.6,35,44.6z"/>
		<circle class="st1" cx="31" cy="42.5" r="1.1"/>
	</g>
</g>
</svg>
