<?xml version="1.0" encoding="utf-8"?>
<!-- Generator: Adobe Illustrator 19.1.0, SVG Export Plug-In . SVG Version: 6.00 Build 0)  -->
<svg version="1.0" id="Calque_1" xmlns="http://www.w3.org/2000/svg" xmlns:xlink="http://www.w3.org/1999/xlink" x="0px" y="0px"
	 viewBox="0 0 60 60" style="enable-background:new 0 0 60 60;" xml:space="preserve">
<style type="text/css">
	.st0{clip-path:url(#SVGID_2_);fill:none;stroke:#FFD60F;stroke-width:1.1749;stroke-linecap:round;}
	.st1{clip-path:url(#SVGID_2_);}
	.st2{fill:none;stroke:#FFD62D;stroke-width:1.2233;stroke-linecap:round;stroke-miterlimit:10;}
</style>
<g>
	<defs>
		<rect id="SVGID_1_" x="6.6" y="8.1" width="47.8" height="47.8"/>
	</defs>
	<clipPath id="SVGID_2_">
		<use xlink:href="#SVGID_1_"  style="overflow:visible;"/>
	</clipPath>
	<circle class="st0" cx="30.5" cy="32" r="23.3"/>
	<g class="st1">
		<g>
			<path class="st2" d="M19.7,30.4h-0.9c-0.2,0-0.3,0.2-0.3,0.4v6.6c0,0.2,0.1,0.4,0.3,0.4h0.9c0.2,0,0.3-0.2,0.3-0.4v-6.6
				C20,30.6,19.9,30.4,19.7,30.4z"/>
			<path class="st2" d="M25.7,27.5c1.8,0,3.3-1.5,3.3-3.3c0-1.9-1.5-3.3-3.3-3.3c-1.8,0-3.3,1.4-3.3,3.3
				C22.4,26,23.9,27.5,25.7,27.5z"/>
			<path class="st2" d="M33.8,27.5c1.9,0,3.3-1.5,3.3-3.3c0-1.9-1.4-3.3-3.3-3.3c-1.8,0-3.3,1.4-3.3,3.3C30.4,26,32,27.5,33.8,27.5z
				"/>
			<path class="st2" d="M20.7,29.7v9.4c0,1.2,1,2.2,2.2,2.2h4.5h0.9H30h1h6.4V27.6H22.9C21.7,27.6,20.7,28.5,20.7,29.7z"/>
			<polygon class="st2" points="42.8,28.5 38,31.5 38,37.4 42.8,40.3 44,40.3 44,28.5 			"/>
		</g>
	</g>
</g>
</svg>
