<?xml version="1.0" encoding="utf-8"?>
<!-- Generator: Adobe Illustrator 19.1.0, SVG Export Plug-In . SVG Version: 6.00 Build 0)  -->
<svg version="1.0" id="Calque_1" xmlns="http://www.w3.org/2000/svg" xmlns:xlink="http://www.w3.org/1999/xlink" x="0px" y="0px"
	 viewBox="0 0 60 60" style="enable-background:new 0 0 60 60;" xml:space="preserve">
<style type="text/css">
	.st0{clip-path:url(#SVGID_2_);fill:none;stroke:#FFD60F;stroke-width:1.1749;stroke-linecap:round;}
	.st1{fill:#FFD60F;}
</style>
<g>
	<g>
		<g>
			<defs>
				<rect id="SVGID_1_" x="6.5" y="8.4" width="47.8" height="47.8"/>
			</defs>
			<clipPath id="SVGID_2_">
				<use xlink:href="#SVGID_1_"  style="overflow:visible;"/>
			</clipPath>
			<circle class="st0" cx="30.4" cy="32.2" r="23.3"/>
		</g>
	</g>
	<path class="st1" d="M30.4,17.5c-3,0-5.4,2.4-5.4,5.4h-3.3c-0.4,0-0.7,0.3-0.7,0.6l-1.6,17.9v0.1c0,2,1.8,3.6,4.1,3.6h13.9
		c2.2,0,4.1-1.6,4.1-3.6v-0.1l-1.6-17.9c0-0.4-0.3-0.6-0.7-0.6h-3.3C35.8,19.9,33.4,17.5,30.4,17.5z M30.4,18.9c2.2,0,4,1.8,4,4
		h-8.1C26.4,20.7,28.2,18.9,30.4,18.9z M22.3,24.3H25v2.4c0,0.4,0.3,0.7,0.7,0.7s0.7-0.3,0.7-0.7v-2.4h8.1v2.4
		c0,0.4,0.3,0.7,0.7,0.7s0.7-0.3,0.7-0.7v-2.4h2.7l1.5,17.2c0,1.2-1.2,2.2-2.7,2.2H23.5c-1.5,0-2.7-1-2.7-2.2L22.3,24.3z"/>
</g>
</svg>
