<?xml version="1.0" encoding="utf-8"?>
<!-- Generator: Adobe Illustrator 19.1.0, SVG Export Plug-In . SVG Version: 6.00 Build 0)  -->
<svg version="1.0" id="Calque_1" xmlns="http://www.w3.org/2000/svg" xmlns:xlink="http://www.w3.org/1999/xlink" x="0px" y="0px"
	 viewBox="0 0 60 60" style="enable-background:new 0 0 60 60;" xml:space="preserve">
<style type="text/css">
	.st0{clip-path:url(#SVGID_2_);fill:none;stroke:#FFD60F;stroke-width:1.1749;stroke-linecap:round;}
	.st1{fill:none;stroke:#FFD60F;stroke-width:1.3485;stroke-linecap:round;stroke-miterlimit:10;}
	.st2{fill:#FFD60F;}
</style>
<g>
	<g>
		<defs>
			<rect id="SVGID_1_" x="7" y="8.1" width="47.8" height="47.8"/>
		</defs>
		<clipPath id="SVGID_2_">
			<use xlink:href="#SVGID_1_"  style="overflow:visible;"/>
		</clipPath>
		<circle class="st0" cx="30.9" cy="32" r="23.3"/>
	</g>
	<g>
		<path class="st1" d="M41.3,25.9c0,4.9-0.7,10.9-2.8,13.1c-1.3,1.3-10.2,2.4-12,1.8c-1.6-0.5-4.9-0.9-7.6-8
			c-1.8-4.4,1.2-5.9,2.3-5.9c0.3,3.4,1.8,6.6,2.4,7c-0.5-1.2-1.2-6.5-1.2-8c0.1-5.1,1.9-7,9.6-7S41.3,20.8,41.3,25.9z"/>
		<path class="st2" d="M38.2,41.2c0,0-3.5,1.3-7.8,0.9c-3.8-0.3-5.8-1.6-5.8-1.6c0,2.6,0.4,4.9,0.8,5.3c0.7,0.7,2.3,1.1,6.1,1.1
			s5.5-0.4,5.9-1.1C37.9,44.5,38.2,41.2,38.2,41.2z"/>
	</g>
</g>
</svg>
